<?xml version="1.0" encoding="UTF-8" standalone="no"?>
<!-- Created with Inkscape (http://www.inkscape.org/) -->

<svg
   width="180"
   height="180"
   viewBox="0 0 47.625 47.625"
   version="1.1"
   id="svg5"
   inkscape:version="1.1.1 (3bf5ae0d25, 2021-09-20, custom)"
   sodipodi:docname="BBI.svg"
   inkscape:export-filename="/home/vinukakodituwakku/Downloads/BBI.png"
   inkscape:export-xdpi="96"
   inkscape:export-ydpi="96"
   xmlns:inkscape="http://www.inkscape.org/namespaces/inkscape"
   xmlns:sodipodi="http://sodipodi.sourceforge.net/DTD/sodipodi-0.dtd"
   xmlns="http://www.w3.org/2000/svg"
   xmlns:svg="http://www.w3.org/2000/svg">
  <sodipodi:namedview
     id="namedview7"
     pagecolor="#505050"
     bordercolor="#eeeeee"
     borderopacity="1"
     inkscape:pageshadow="0"
     inkscape:pageopacity="0"
     inkscape:pagecheckerboard="0"
     inkscape:document-units="px"
     showgrid="false"
     inkscape:zoom="1"
     inkscape:cx="83"
     inkscape:cy="90"
     inkscape:window-width="906"
     inkscape:window-height="893"
     inkscape:window-x="40"
     inkscape:window-y="93"
     inkscape:window-maximized="1"
     inkscape:current-layer="layer1" />
  <defs
     id="defs2" />
  <g
     inkscape:label="Layer 1"
     inkscape:groupmode="layer"
     id="layer1">
    <g
       id="g413"
       transform="translate(5.9903926,-3.2373185)">
      <path
         d="m 17.751851,3.8263351 c 12.953708,0 23.454761,10.4781109 23.454761,23.4034529 0,12.925356 -10.501053,23.403467 -23.454761,23.403467 -12.9536646,0 -23.4547023,-10.478111 -23.4547023,-23.403467 0,-12.925342 10.5010377,-23.4034529 23.4547023,-23.4034529"
         style="fill:#f7d1d3;fill-opacity:1;fill-rule:evenodd;stroke:none;stroke-width:0.141063"
         id="path832" />
    </g>
    <g
       id="g416"
       transform="translate(5.9903926,-3.2373185)">
      <path
         d="m -0.63305534,102.52523 -0.311,0.9352 c 0.9312,0.2429 1.6722,0.4561 2.22350004,0.6395 1.6484,0.5482 2.6839,1.2784 3.1017,2.1827 0.426,0.9008 0.4606,1.8776 0.112,2.9262 -0.4644,1.3966 -1.512,2.666 -3.1454,3.7936 -1.63300004,1.1276 -3.8256,1.8363 -6.584,2.1237 -2.7581,0.2874 -5.4007997,0.008 -7.9301997,-0.8331 -2.4514,-0.8153 -4.1598,-1.9426 -5.1316,-3.3843 -0.9739,-1.4355 -1.2067,-2.9171 -0.7024,-4.4337 0.6835,-2.0559 2.5401,-3.535 5.5758,-4.4362 0.3033,-0.0918 0.4889,-0.2302 0.5527,-0.4218 0.05,-0.1499 0.046,-0.2976 -0.02,-0.4393 -0.062,-0.1338 -0.1579,-0.2257 -0.2897,-0.2696 -0.3178,-0.1058 -1.0647,0.0788 -2.2467,0.5507 -1.1821,0.4723 -2.2765,1.2002 -3.2823,2.1839 -1.01,0.9754 -1.7045,2.0423 -2.0851,3.187 -0.4604,1.3847 -0.5273,2.787 -0.2027,4.2128 0.3245,1.4258 1.0505,2.6861 2.1617,3.7877 1.1194,1.0978 2.592,1.9536 4.4322,2.5656 2.5654,0.8529 5.3356997,1.0287 8.3236997,0.5312 2.9877,-0.4972 5.50569996,-1.5236 7.554,-3.0793 2.0543,-1.5534 3.3971,-3.2899 4.0368,-5.214 0.2294,-0.6894 0.3807,-1.4043 0.4561,-2.1314 0.026,-0.3178 0.025,-1.6563 -0.01,-4.0229 -2.2271,-0.008 -4.4246,-0.3266 -6.59220004,-0.9542 z m 6.93580004,-10.272699 0.7248,-1.0352 -4.8444,-0.5945 c -1.92780004,-0.2375 -4.1068,-0.6117 -6.5336,-1.1279 -1.3192,-0.2763 -2.1543,-0.4943 -2.5021,-0.6451 -0.3475,-0.1508 -0.4609,-0.3651 -0.3379,-0.6492 0.076,-0.1737 0.3172,-0.4132 0.7175,-0.701 0.7131,-0.5167 1.5122,-0.9615 2.3969,-1.3351 l -0.424,-0.8314 c -1.7229,0.781 -2.7868,1.2971 -3.1887,1.5565 -0.8068,0.5105 -1.4687,1.0361 -1.9843,1.59 -0.3451997,0.3668 -0.6073997,0.7486 -0.7834997,1.1542 -0.1256,0.2897 -0.1516,0.5403 -0.084,0.7487 0.07,0.2026 0.2407,0.3659 0.4955,0.4768 0.1677997,0.0728 0.4197997,0.1272 0.7553997,0.1624 l 2.5773,0.3129 c -1.5868,0.468 -3.0892,1.2002 -4.5070997,2.1824 -0.8725,0.599 -1.4627,1.2447 -1.762,1.9344 -0.2866,0.6605 -0.271,1.2594 0.039,1.8142 0.4198,0.7466 1.1339,1.3385 2.1419,1.7761 1.1992997,0.5205 2.6761997,0.7827 4.4245997,0.7841 1.7507,-0.004 3.4591,-0.2752 5.1262,-0.8325 1.66449996,-0.5514 3.0412,-1.2966 4.1246,-2.238 0.8263,-0.7293 1.5509,-1.8125 2.1748,-3.2496 0.1582,-0.3648 0.2934,-0.7401 0.4082,-1.131 z m -3.5376,0.964 c -0.1423,0.6614 -0.3025,1.2045 -0.4836,1.622 -0.44,1.0137 -1.1027,1.7796 -1.99420004,2.2947 -0.8912,0.515 -2.20389996,0.7789 -3.93989996,0.7965 -1.7359,0.0179 -3.331,-0.2888 -4.7798,-0.9173 -0.7707,-0.3345 -1.2659,-0.701 -1.4944,-1.11 -0.2286997,-0.4093 -0.2482997,-0.8241 -0.067,-1.241 0.3368,-0.7767 1.1217,-1.4276 2.3494,-1.9551 1.2333,-0.5252 2.734,-0.652 4.4969,-0.3827 z m -7.9884,-12.8922 -1.3178,2.4253 10.0213,2.6853 c 4.959,1.3649 8.0320003,2.1651 9.2282003,2.3981 1.1931,0.2387 2.2448,0.3141 3.1496,0.2236 0.9102,-0.0875 1.8062,-0.3342 2.6926,-0.7222 0.8898,-0.3935 1.6872,-0.9088 2.3902,-1.5407 0.7027,-0.6318 1.2186,-1.25 1.5412,-1.8439 0.3047,-0.5604 0.4229,-1.0426 0.3543,-1.4323 -0.066,-0.3952 -0.2789,-0.6906 -0.6341,-0.8836 -0.3055,-0.1661 -0.6324,-0.1857 -0.9847,-0.0536 -0.3493,0.1267 -0.6322,0.3827 -0.8343,0.7546 -0.2593,0.4771 -0.5677,1.2297 -0.9283,2.2774 -0.1077,0.3441 -0.2225,0.6341 -0.3521,0.8728 -0.1811,0.3327 -0.4751,0.5828 -0.8733,0.7474 -0.3986,0.1645 -0.9709,0.1988 -1.7048,0.0944 -0.7427,-0.1017 -2.1971,-0.468 -4.3602,-1.1043 l -5.8371003,-1.6407 c 1.7572,-0.3895 3.2524,-0.9715 4.4994003,-1.7317 0.9414,-0.5811 1.6172,-1.256 2.0336,-2.022 0.2925,-0.5385 0.3342,-1.1052 0.1255,-1.7002 -0.2026,-0.5919 -0.6162,-1.061 -1.2381,-1.3989 -1.171,-0.6364 -2.5345003,-0.6009 -4.1071003,0.097 -1.5673,0.7015 -3.051,2.2674 -4.4567,4.6953 0.086,-1.0316 0.043,-1.9177 -0.1241,-2.6552 -0.167,-0.7382 -0.512,-1.5582 -1.0211,-2.46 -0.5176,-0.8997 -1.47850004,-2.2268 -2.88880004,-3.971 -1.67549996,-2.0755 -2.66309996,-3.6972 -2.96299996,-4.8524 -0.2996,-1.1548 -0.1996,-2.186 0.2951,-3.0962 0.2925,-0.5383 0.6474,-0.9134 1.0703,-1.1364 0.4232,-0.2231 0.7555,-0.2654 0.9941,-0.1355 0.1554,0.0841 0.3306,0.2514 0.52809996,0.5096 0.2138,0.2818 0.4162,0.4779 0.6103,0.5834 0.2554,0.1389 0.5315,0.1596 0.8314,0.0709 0.3028,-0.0941 0.52640004,-0.2676 0.66820004,-0.5284 0.1658,-0.3053 0.1885,-0.6378 0.062,-0.987 -0.1265,-0.3493 -0.38810004,-0.6353 -0.78750004,-0.8524 -0.7827,-0.4252 -1.67219996,-0.4417 -2.67189996,-0.0573 -0.9939,0.387 -1.806,1.1537 -2.4302,2.3023 -0.6426,1.1824 -0.9187,2.4052 -0.8317,3.6601 0.087,1.2552 0.5684,2.6453 1.4346,4.1729 0.5069,0.8796 1.7927,2.6277 3.85399996,5.2503 0.9896,1.2351 1.67870004,2.242 2.08180004,3.0218 0.3183,0.6043 0.5618,1.3337 0.7339,2.1815 z m 8.6392,2.4372 c 0.779,-1.4601 1.5627,-2.5582 2.3457,-3.2975 0.7826,-0.739 1.5233,-1.1631 2.2254,-1.2776 0.7019,-0.1145 1.3374,-0.0139 1.9202,0.3027 0.4162003,0.2263 0.6889003,0.5182 0.8209003,0.8706 0.1293,0.3577 0.1149,0.6879 -0.054,0.9986 -0.546,1.0046 -2.4971003,1.9355 -5.8504003,2.8021 z m 7.9611003,-19.4777 -0.3112,-0.951 c -4.0851003,0.851 -6.7369003,2.1609 -7.9628003,3.9396 -0.495,0.7174 -0.6305,1.4372 -0.4085,2.1501 0.2273,0.7169 0.8745,1.4471 1.946,2.1855 2.1682,1.495 4.7769,2.3187 7.8349003,2.478 3.4611,0.1993 5.9018,-0.7265 7.325,-2.791 0.4947,-0.7177 0.6928,-1.3943 0.5959,-2.0213 -0.097,-0.6271 -0.4587,-1.16 -1.088,-1.594 -0.6604,-0.4549 -1.4632,-0.6709 -2.4179,-0.6542 -0.9553,0.0167 -2.1838,0.3745 -3.6808,1.0766 -0.7413,0.3634 -2.2122,1.2059 -4.4158003,2.533 -0.6069,-0.288 -1.1591,-0.5998 -1.6583,-0.9439 -0.7177,-0.4947 -1.1435,-0.9567 -1.2665,-1.3791 -0.1284,-0.4263 -0.039,-0.8557 0.2616,-1.2923 0.2869,-0.4161 0.7183,-0.7863 1.2966,-1.1242 0.7744,-0.4555 2.0934,-0.989 3.9498003,-1.6118 z m -1.4902003,6.8361 c 1.8536003,-1.1311 3.4849003,-1.8168 4.8884003,-2.0617 0.9714,-0.1511 1.7475,-0.0306 2.3247,0.3674 0.4317,0.2976 0.7013,0.6522 0.8036,1.0601 0.097,0.4048 0.023,0.7909 -0.2282,1.1546 -0.2582,0.3747 -0.6497,0.6418 -1.1792,0.7982 -0.7044,0.2203 -1.5472,0.2302 -2.5237,0.0326 -1.4355,-0.299 -2.7986,-0.7477 -4.0856003,-1.3512 z m 28.0922003,-21.303 -0.7027,0.6905 c 0.7183,0.6404 1.2807,1.1679 1.688,1.5823 1.2178,1.2388 1.8068,2.3605 1.7672,3.356 -0.031,0.9961 -0.4451,1.8813 -1.2334,2.656 -1.0497,1.0319 -2.5603,1.6844 -4.5281,1.9443 -1.9672,0.2602 -4.242,-0.1077 -6.8286,-1.1083 -2.5864,-1.0004 -4.8118,-2.4531 -6.6802,-4.3537 -1.811,-1.8426 -2.8184,-3.6244 -3.0271,-5.3504 -0.2129,-1.7215 0.2546,-3.1468 1.3944,-4.267 1.5452,-1.5188 3.8718,-1.9902 6.9846,-1.4094 0.3118,0.0561 0.5402,0.0178 0.6842,-0.1239 0.1126,-0.1105 0.1764,-0.2438 0.182,-0.4002 0.01,-0.1472 -0.038,-0.273 -0.1349,-0.372 -0.2347,-0.2386 -0.9839,-0.4147 -2.2513,-0.5331 -1.2673,-0.118 -2.573,0.0317 -3.9166,0.4492 -1.3431,0.4082 -2.4474,1.0418 -3.3078,1.8873 -1.0406,1.0231 -1.739,2.2408 -2.0993,3.6582 -0.3606,1.4173 -0.2883,2.8695 0.199,4.3565 0.4963,1.4871 1.4179,2.9197 2.7771,4.3027 1.8952,1.9279 4.2815,3.3463 7.168,4.2645 2.8862,0.9181 5.5956,1.1514 8.1277,0.6996 2.5362,-0.4473 4.5227,-1.3816 5.9687,-2.8029 0.5182,-0.5094 0.9785,-1.0769 1.3771,-1.6898 0.1672,-0.2712 0.7761,-1.4629 1.8263,-3.5844 -1.9789,-1.0219 -3.7905,-2.306 -5.4343,-3.852 z m -6.1322,-12.865 -2.126,1.7603 4.1718,3.0078 c 2.0452,1.48 3.9469,2.9149 5.7092,4.3101 0.4289,0.3498 0.6863,0.5715 0.7748,0.6784 0.1814,0.2191 0.1678,0.4107 -0.041,0.5839 -0.146,0.1207 -0.4456,0.2047 -0.8986,0.2517 -0.4621,0.0465 -1.4,0.003 -2.8091,-0.1341 l -0.027,0.8589 c 1.7283,0.2254 3.2553,0.2075 4.5771,-0.0584 1.3164,-0.2622 2.2181,-0.5989 2.7048,-1.0017 0.1701,-0.1409 0.2742,-0.2926 0.3073,-0.451 0.038,-0.1624 0.01,-0.3002 -0.091,-0.4167 -0.1049,-0.1267 -0.4379,-0.4003 -1.0074,-0.8309 l -2.7456,-2.048 c 2.207,0.7146 4.3506,1.1047 6.4434,1.1761 1.002,0.0315 1.6971,-0.1097 2.0863,-0.4323 0.2869,-0.2375 0.4487,-0.5272 0.4856,-0.8691 0.037,-0.3418 -0.048,-0.6327 -0.2537,-0.8807 -0.2135,-0.2577 -0.4833,-0.3954 -0.8173,-0.4224 -0.3336,-0.0269 -0.9731,0.1418 -1.9179,0.506 -0.9028,0.3459 -1.7098,0.5298 -2.4264,0.5658 -0.7209,0.0309 -1.6254,-0.0811 -2.7239,-0.3279 -1.0933,-0.2509 -1.9547,-0.5383 -2.5826,-0.8711 -0.6282,-0.3328 -1.9193,-1.2484 -3.8701,-2.7329 z m 25.1535,1.6625 1.1744,-0.4669 -3.721,-3.158 c -1.4805,-1.2578 -3.0954,-2.7678 -4.8396,-4.5321 -0.9505,-0.9561 -1.5284,-1.5967 -1.7359,-1.9136 -0.2075,-0.3172 -0.1849,-0.5585 0.074,-0.7283 0.1588,-0.1037 0.4921,-0.1709 0.9845,-0.1913 0.8799,-0.0402 1.7921,0.0272 2.7363,0.2013 l 0.1026,-0.9278 c -1.8686,-0.294 -3.041,-0.4473 -3.5195,-0.4513 -0.9544,-0.0167 -1.7963,0.0587 -2.5316,0.2381 -0.4898,0.1168 -0.9187,0.292 -1.2886,0.5341 -0.2642,0.1732 -0.4235,0.3682 -0.4814,0.5794 -0.052,0.2083 0,0.4382 0.152,0.6706 0.1003,0.1531 0.2812,0.3371 0.5422,0.5511 l 1.9815,1.6773 c -1.5832,-0.4808 -3.2406,-0.6945 -4.9649,-0.6529 -1.0582,0.021 -1.9063,0.2364 -2.5351,0.6483 -0.6023,0.3943 -0.9184,0.9034 -0.9643,1.5373 -0.06,0.8543 0.2117,1.7413 0.8138,2.6608 0.7161,1.0936 1.806,2.1243 3.2661,3.0861 1.4655,0.9578 3.0413,1.6705 4.7407,2.1206 1.6937,0.4538 3.2533,0.5876 4.676,0.3963 1.0911,-0.1556 2.2915,-0.6625 3.6023,-1.5205 0.3328,-0.218 0.6519,-0.457 0.9623,-0.7206 z m -3.4852,-1.1381 c -0.4824,0.4742 -0.9147,0.8402 -1.2954,1.0896 -0.9247,0.6052 -1.8989,0.881 -2.927,0.8215 -1.0276,-0.0592 -2.2695,-0.5598 -3.7296,-1.4989 -1.4601,-0.9389 -2.6246,-2.0716 -3.4897,-3.3928 -0.4601,-0.7027 -0.6727,-1.281 -0.6387,-1.7484 0.034,-0.4675 0.2452,-0.8249 0.6256,-1.0741 0.7081,-0.4635 1.7215,-0.5763 3.0371,-0.3424 1.3189,0.2387 2.6427,0.9572 3.9676,2.1509 z m 5.2379,-1.2455 3.918,-2.0489 c 2.0722,2.395 3.8733,4.0408 5.4012,4.9453 1.5307,0.8963 3.1612,1.3836 4.8974,1.4596 1.7331,0.0703 3.1944,-0.2022 4.3756,-0.8198 0.6658,-0.3481 1.0995,-0.7461 1.2979,-1.1846 0.2039,-0.4417 0.2107,-0.8374 0.02,-1.2011 -0.1729,-0.3302 -0.428,-0.5462 -0.7718,-0.6443 -0.3433,-0.0983 -0.7042,-0.0521 -1.0735,0.1409 -0.3864,0.2021 -1.0443,0.6885 -1.9879,1.4743 -0.4649,0.3784 -0.8499,0.6508 -1.141,0.8031 -0.722,0.3775 -1.6024,0.2749 -2.6498,-0.3107 -1.042,-0.5885 -2.1359,-1.5492 -3.2763,-2.8846 l -2.685,-3.0364 4.3657,-2.2828 -0.8774,-1.038 -4.3886,2.2946 -8.056,-9.1236 c -2.4574,-2.7637 -4.9921,-4.5034 -7.604,-5.2188 -2.6098,-0.724 -4.9402,-0.5463 -6.9944,0.5281 -0.6886,0.36 -1.1387,0.7662 -1.3595,1.2166 -0.2121,0.453 -0.2214,0.8714 -0.017,1.2631 0.1758,0.3359 0.4394,0.5403 0.7881,0.6075 0.3517,0.0725 0.7568,-0.0111 1.216,-0.2509 0.2296,-0.1202 0.5508,-0.3237 0.9692,-0.6137 0.714,-0.5017 1.421,-0.9357 2.1206,-1.3014 1.0803,-0.5649 2.0044,-0.72 2.7578,-0.4654 0.7586,0.252 1.9009,1.2373 3.4325,2.9667 l 10.3286,11.6561 -3.9124,2.0457 z m 15.1832,-3.043 3.1717,-0.0664 -3.1442,-4.3472 3.4999,-1.4028 -0.769,-1.1209 -3.5294,1.4148 -3.7922,-5.1148 c -1.1855,-1.5322 -1.91,-2.6436 -2.1804,-3.318 -0.1245,-0.3107 -0.1494,-0.5593 -0.075,-0.7458 0.081,-0.189 0.2285,-0.3296 0.4573,-0.4215 0.3577,-0.1434 0.9816,-0.1485 1.8836,-0.0201 1.1789,0.174 2.3474,0.4408 3.4994,0.8022 l 0.3466,-1.0369 c -3.2683,-0.8881 -5.4048,-1.3794 -6.4241,-1.4607 -1.016,-0.0896 -1.7802,-0.0281 -2.2964,0.1788 -0.4223,0.1693 -0.6953,0.4559 -0.8169,0.8652 -0.1216,0.4093 -0.045,0.957 0.2347,1.6546 0.3314,0.8265 1.0511,1.9944 2.164,3.5149 l 4.4722,6.1149 -2.7848,1.1163 0.8042,1.1064 2.7904,-1.1186 z m 14.7943,0.2253 c 0.3566,-0.1284 0.6106,-0.3546 0.7586,-0.6698 0.1459,-0.3215 0.1496,-0.6653 0.017,-1.0335 -0.1823,-0.5049 -0.5213,-0.8861 -1.0114,-1.1461 -0.4896,-0.2596 -0.9505,-0.3081 -1.3901,-0.1494 -0.3444,0.1242 -0.593,0.3481 -0.7368,0.6753 -0.1437,0.3274 -0.1431,0.6831 0,1.0751 0.1869,0.5171 0.5117,0.8966 0.9754,1.1387 0.4692,0.2404 0.9318,0.275 1.3893,0.1097 z m -11.0662,-9.0604 -0.53,0.8762 c 1.6137,0.8615 2.997,1.3831 4.1431,1.5803 1.1455,0.1976 2.0562,0.1713 2.7212,-0.0688 0.3685,-0.133 0.6237,-0.3189 0.762,-0.5502 0.138,-0.2311 0.1599,-0.4876 0.059,-0.7668 -0.1199,-0.3328 -1.0111,-1.6294 -2.6691,-3.8784 -2.7039,-3.6776 -4.212,-5.9403 -4.5164,-6.7839 -0.062,-0.1723 -0.07,-0.324 -0.028,-0.4671 0.042,-0.1429 0.104,-0.2322 0.1993,-0.2665 0.3682,-0.1329 1.5846,0.2605 3.6493,1.181 l 0.4331,-0.9219 c -2.131,-0.9365 -3.645,-1.4848 -4.528,-1.6426 -0.8833,-0.1582 -1.5523,-0.1517 -2.0157,0.0155 -0.4102,0.148 -0.6838,0.3943 -0.8289,0.7359 -0.1457,0.341 -0.1358,0.7404 0.03,1.1979 0.523,1.4497 2.6765,4.6815 6.4579,9.6894 0.1797,0.2373 0.3073,0.4601 0.3821,0.6679 0.084,0.2318 0.02,0.3889 -0.1882,0.464 -0.2319,0.0836 -0.5332,0.085 -0.8969,0.008 -0.3657,-0.0828 -1.2456,-0.4368 -2.6357,-1.0701 z m 7.5028,-2.6708 -0.4816,0.7733 c 1.8918,1.1104 3.3559,1.8012 4.3906,2.0668 1.0295,0.2729 1.8725,0.3299 2.5248,0.1783 0.2585,-0.0601 0.4425,-0.161 0.5658,-0.2999 0.117,-0.1375 0.1627,-0.2776 0.1284,-0.4252 -0.024,-0.1049 -0.1,-0.2883 -0.2177,-0.5463 l -1.6606,-3.4336 c 1.5342,1.0766 3.3605,1.9882 5.4808,2.7406 1.1197,0.3818 1.9973,0.502 2.6309,0.3549 0.4677,-0.1086 0.8027,-0.3419 0.9924,-0.6974 0.1958,-0.3566 0.2313,-0.8189 0.1026,-1.3728 -0.087,-0.375 -0.2398,-0.7806 -0.4592,-1.2226 -0.3722,-0.737 -1.2665,-2.3255 -2.6876,-4.7576 -1.3317,-2.2714 -2.0922,-3.8135 -2.2793,-4.6194 -0.059,-0.2523 -0.066,-0.4513 -0.027,-0.5902 0.044,-0.1465 0.1341,-0.2324 0.2633,-0.2624 0.3507,-0.0814 0.9768,0.1298 1.8783,0.6338 0.6423,0.3628 1.2755,0.6891 1.9006,0.9785 l 0.2517,-0.7588 c -1.3844,-0.9624 -2.7499,-1.6762 -4.104,-2.1461 -0.8671,-0.298 -1.5378,-0.3952 -2.0302,-0.2807 -0.4552,0.1058 -0.7673,0.3535 -0.9425,0.7441 -0.1749,0.3909 -0.1723,0.961 0,1.7116 0.2489,1.0706 1.5369,3.5725 3.8613,7.52 0.7637,1.4179 1.1713,2.2504 1.23,2.5027 0.083,0.3566 -0.097,0.5865 -0.5403,0.6894 -0.4799,0.1117 -1.1596,0.004 -2.0336,-0.3251 -1.305,-0.4813 -2.4497,-1.1361 -3.4407,-1.9693 -0.6312,-0.5405 -1.2775,-1.4799 -1.9264,-2.8207 l -2.925,-5.9477 -2.6825,0.6231 c 0.9233,1.6858 1.7603,3.3069 2.5172,4.8625 l 3.1907,6.4758 c 0.1244,0.2565 0.1995,0.4402 0.2267,0.557 0.073,0.3138 -0.013,0.5026 -0.2531,0.5581 -0.1967,0.046 -0.5023,-0.013 -0.9238,-0.1811 -0.8651,-0.3175 -1.7065,-0.7577 -2.5231,-1.3136 z m 28.571495,-0.4739 1.493,0.1409 c -1.2898,-2.7338 -2.4993,-5.4851 -3.6417,-8.2588 -0.826,-1.976 -1.436,-3.638 -1.8345,-4.9787 -0.2024,-0.667 -0.3873,-1.5276 -0.5474,-2.5767 -0.2727,-1.7601 -0.665,-3.1465 -1.1792,-4.17149997 -0.7248,-1.43550003 -1.8513,-2.50810003 -3.3752,-3.23150003 -1.5307,-0.7228 -3.246,-0.9473 -5.166195,-0.6778 -1.6452,0.2313 -2.8854,0.8011 -3.721,1.7096 -0.8357,0.90820003 -1.186,1.86320003 -1.0454,2.8641 0.1397,0.9947 0.6505,1.8604 1.5276,2.611 0.6545,0.5712 1.9403,1.188 3.857595,1.8499 0.9675,0.3487 1.8865,0.7169 2.7522,1.112 -0.9658,-0.3364 -1.7051,-0.4682 -2.2054,-0.3979 -0.4566,0.064 -0.827095,0.333 -1.112295,0.8005 -0.2911,0.4683 -0.3872,1.0559 -0.2897,1.7501 0.3155,2.2456 1.297695,4.3784 2.941795,6.4114 1.6498,2.0262 3.4909,3.4642 5.5296,4.3067 1.2529,0.5193 2.7521,0.6596 4.4974,0.4144 0.3441,-0.0485 0.7622,-0.1134 1.26,-0.2027 z m -2.4216,-2.3896 c -0.5667,0.1876 -1.078,0.3172 -1.5285,0.3804 -1.1571,0.1627 -2.1946,-0.004 -3.1127,-0.5003 -0.9116,-0.4969 -1.7637,-1.4295 -2.5546,-2.7919 -1.1078,-1.9366 -1.756,-3.5997 -1.9528,-5.0006 -0.081,-0.5754 0.014,-1.08 0.2778,-1.5188 0.2696,-0.4399 0.6055,-0.6848 1.0117,-0.7421 0.4819,-0.0674 1.122,0.0851 1.9072,0.453 0.786,0.3744 1.4567,0.8796 2.0137,1.5287 0.5564,0.6489 1.1979,1.8088 1.9176,3.481 z m -3.892,-9.6781 c -0.9369,-0.6276 -2.7057,-1.5973 -5.3056,-2.8964 -2.294095,-1.1191 -3.719595,-1.9585 -4.289395,-2.5166 -0.5638,-0.5647 -0.8966,-1.207 -0.9958,-1.91399997 -0.098,-0.6942 0.121,-1.3626 0.6619,-2.00630003 0.5411,-0.6438 1.2532,-1.0245 2.135,-1.1483 0.831695,-0.1168 1.667895,-0.0239 2.506695,0.2727 0.8399,0.303 1.6041,0.7954 2.2952,1.48930003 0.6905,0.6936 1.2138,1.5131 1.5699,2.45819997 0.3568,0.9513 0.6567,2.2229 0.8963,3.835 0.062,0.3549 0.2392,1.1591 0.5258,2.4264 z m 36.8498,20.439 c -0.2545,-0.7699 -0.449,-1.5118 -0.5774,-2.2255 -0.1273,-0.7197 -0.2973,-2.1286 -0.502,-4.2373 -0.3436,-3.6022 -0.7155,-6.0601 -1.114,-7.3862 -0.5599,-1.8085 -1.5134,-3.539 -2.8602,-5.1976 1.8048,-1.4791 3.1734,-2.4009 4.119,-2.7709 0.9386,-0.3645 1.8423,-0.485 2.6992,-0.3631 0.9632,0.1367 1.7376,0.5213 2.3253,1.1469 0.5873,0.6256 0.837,1.2481 0.7491,1.8672 -0.034,0.2373 -0.1513,0.527 -0.3492,0.8881 -0.2168,0.4028 -0.337,0.7112 -0.3662,0.9176 -0.049,0.3441 0.011,0.6397 0.1874,0.8815 0.1697,0.2413 0.4113,0.3839 0.7174,0.4275 0.3379,0.0479 0.6245,-0.0391 0.879,-0.2579 0.2481,-0.2203 0.4059,-0.5678 0.4714,-1.0307 0.2053,-1.4446 -0.2012,-2.8038 -1.2262,-4.0785 -1.0185,-1.2736 -2.3341,-2.0282 -3.9289,-2.2547 -0.7126,-0.1012 -1.438,-0.0703 -2.1767,0.0992 -0.7378,0.1633 -1.4618,0.4558 -2.1736,0.8844 -0.4756,0.2963 -1.463,1.0936 -2.9562,2.4001 -1.7266,-1.8144 -3.6936,-2.8786 -5.9074,-3.1929 -2.4327,-0.3453 -4.5556,0.138 -6.3616,1.4445 -1.807,1.313 -2.872,3.1076 -3.196,5.3901 -0.3135,2.2076 0.1905,4.1868 1.5106,5.9434 1.3269,1.7518 3.05,2.7808 5.1763,3.0827 1.1631,0.1652 2.0707,0.0643 2.7286,-0.3013 0.6582,-0.366 1.0267,-0.8496 1.1138,-1.4624 0.1961,-1.3822 -0.9261,-2.5558 -3.3744,-3.5096 1.1591,-0.2565 2.2765,-0.7104 3.344,-1.3561 1.3734,-0.8192 3.0445,-2.1198 5.0125,-3.8948 0.4491,0.7021 0.8076,1.3654 1.0764,1.9905 0.2676,0.6313 0.5048,1.4303 0.7115,2.404 0.1434,0.6072 0.3177,1.8953 0.5292,3.8648 0.1936,1.8266 0.3441,3.0152 0.4569,3.5671 0.2421,1.2149 0.5094,2.2989 0.7968,3.2394 0.2875,0.9403 0.6486,1.9038 1.0707,2.8826 -2.2198,-0.3152 -3.7539,-0.7435 -4.6023,-1.2849 -1.2056,-0.7645 -1.7314,-1.6878 -1.5798,-2.757 0.044,-0.313 0.2067,-0.8703 0.4907,-1.6594 0.1001,-0.2985 0.1667,-0.5443 0.1942,-0.7382 0.041,-0.2877 -0.018,-0.5448 -0.1786,-0.7653 -0.1661,-0.2214 -0.3895,-0.3552 -0.6834,-0.3969 -0.3379,-0.0479 -0.6461,0.055 -0.919,0.3161 -0.2733,0.2611 -0.4525,0.6695 -0.5304,1.2197 -0.1616,1.1384 0.038,2.2958 0.6032,3.4799 0.5593,1.1828 1.3845,2.1103 2.4761,2.7819 1.0848,0.6709 2.6994,1.1619 4.8381,1.4655 0.3439,0.0487 0.6639,0.0879 0.9596,0.1171 1.072,0.0884 1.6704,0.1414 1.7892,0.1584 0.4816,0.0683 0.8237,0.2188 1.0383,0.4601 0.2155,0.2347 0.3033,0.515 0.2583,0.8339 -0.018,0.125 -0.086,0.3385 -0.2075,0.6531 -0.1171,0.2832 -0.1837,0.4845 -0.2016,0.6092 -0.045,0.3192 0.017,0.5961 0.1812,0.8359 0.1647,0.2342 0.3934,0.3753 0.6874,0.417 0.3002,0.0425 0.5814,-0.0516 0.8365,-0.2769 0.2554,-0.2254 0.4184,-0.5658 0.4816,-1.01 0.127,-0.8941 -0.1857,-1.7487 -0.9312,-2.5628 -0.7464,-0.8079 -1.9485,-1.3737 -3.6057,-1.6985 z m -17.6425,-12.6102 c 1.7127,0.2046 2.8536,0.5263 3.4285,0.9714 0.5692,0.4382 0.8152,0.9516 0.7319,1.5395 -0.06,0.4252 -0.2602,0.754 -0.6046,0.9794 -0.3456,0.2318 -0.7716,0.3118 -1.2844,0.2389 -1.207,-0.1715 -2.2269,-0.8521 -3.0648,-2.0494 -0.8388,-1.1906 -1.1591,-2.4869 -0.9601,-3.8875 0.1553,-1.0941 0.6789,-2.1747 1.5749,-3.2278 0.8957,-1.0531 1.9956,-1.8348 3.3009,-2.3576 1.3057,-0.5227 2.6,-0.6964 3.8818,-0.5144 1.2447,0.1768 2.45,0.718 3.63,1.6191 -2.3876,2.1685 -3.787,3.3987 -4.1862,3.6927 -0.79,0.5771 -1.6857,1.0879 -2.6804,1.5335 -0.9944,0.4456 -2.2385,0.8499 -3.7301,1.1994 z m 52.1776,3.6858 0.2429,-1.0425 c -0.3983,-0.2101 -0.7458,-0.3779 -1.0539,-0.5083 -0.4419,-0.1874 -0.9896,-0.3847 -1.645,-0.5868 -1.1058,-0.352 -1.8087,-0.5882 -2.0936,-0.7086 -0.4771,-0.2021 -1.1801,-0.5823 -2.1099,-1.1407 -0.02,1.0344 -0.1204,2.0823 -0.2933,3.1547 -0.1188,0.7659 -0.4437,2.0347 -0.9661,3.8027 -1.3133,-0.5429 -3.3452,-1.431 -6.0775,-2.6567 -1.0406,-5.6403 -2.0001,-9.3189 -2.8689,-11.0245 -0.8688,-1.7056 -1.9211,-2.817 -3.1365,-3.3318 -0.6398,-0.271 -1.1685,-0.3509 -1.5889,-0.2339 -0.4198,0.1174 -0.7123,0.3705 -0.8776,0.7603 -0.1281,0.3024 -0.1409,0.5919 -0.042,0.8603 0.097,0.2741 0.2814,0.4691 0.5547,0.5848 0.1568,0.0666 0.3847,0.1284 0.6848,0.1803 0.7521,0.1196 1.2428,0.2248 1.4695,0.3206 0.7617,0.3228 1.4171,1.108 1.9715,2.3578 0.8927,2.0384 1.8431,5.9324 2.8503,11.6686 1.1398,6.4919 2.2433,11.3357 3.3018,14.521 -2.666,-1.4312 -4.2982,-2.4035 -4.8858,-2.9273 -0.8116,-0.7073 -1.3292,-1.4616 -1.5466,-2.2601 -0.2149,-0.8042 -0.1945,-1.516 0.069,-2.1382 0.086,-0.2035 0.2849,-0.4626 0.5879,-0.773 0.3345,-0.3523 0.5409,-0.6287 0.622,-0.8206 0.106,-0.25 0.1006,-0.5128 -0.01,-0.7861 -0.1108,-0.2732 -0.3013,-0.4705 -0.5745,-0.5864 -0.3898,-0.165 -0.7597,-0.1503 -1.1157,0.0419 -0.3532,0.1865 -0.6546,0.5735 -0.8983,1.1492 -0.3473,0.82 -0.4672,1.7022 -0.368,2.6498 0.1021,0.942 0.4394,1.8462 1.0194,2.6955 0.5774,0.8549 1.4045,1.6718 2.4811,2.4502 0.555,0.4068 1.5823,0.9927 3.0801,1.7643 1.3028,0.682 2.0994,1.1497 2.4007,1.3941 0.4765,0.3804 0.868,0.8821 1.1798,1.5219 0.248,-1.5415 0.5179,-2.8743 0.8158,-3.9829 l 2.8267,-10.4298 2.2173,-7.3885 c 0.9221,0.1712 1.7175,0.3985 2.3862,0.6817 0.4478,0.1896 0.9085,0.4464 1.3901,0.767 z m -8.3087,4.328 c -1.4045,4.8379 -2.2901,8.4348 -2.6424,10.7889 -0.6038,-2.5259 -0.9672,-4.1133 -1.0984,-4.7593 l -1.5985,-8.2914 c 0.9394,0.3572 2.2731,0.9014 4.0005,1.6331 0.4244,0.1797 0.8706,0.3894 1.3388,0.6287 z m 17.9346,4.5944 0.8781,-0.7265 c -1.4728,-3.443 -3.0994,-5.6571 -4.8789,-6.6419 -0.9448,-0.523 -1.8168,-0.5649 -2.6178,-0.1347 -0.7957,0.4332 -1.4823,1.1648 -2.0512,2.1929 -0.9451,1.7076 -1.4644,3.7157 -1.5497,6.0222 -0.094,2.3089 0.2472,4.3022 1.0052,5.9848 0.6037,1.3091 1.5485,2.3154 2.8253,3.0218 0.7959,0.4405 1.4862,0.6278 2.0633,0.5499 0.5828,-0.0743 0.9893,-0.326 1.2277,-0.7572 0.1865,-0.337 0.2259,-0.6689 0.1267,-0.9983 -0.1,-0.3294 -0.3453,-0.6024 -0.7322,-0.8164 -0.3759,-0.2081 -0.957,-0.3059 -1.7433,-0.2937 -0.8155,0.0253 -1.4304,-0.0768 -1.8448,-0.3061 -0.525,-0.2906 -0.9241,-0.8218 -1.1832,-1.5931 -0.2534,-0.7685 -0.2392,-1.9805 0.05,-3.6255 0.2894,-1.6444 0.8226,-3.1688 1.5934,-4.5615 0.5655,-1.0222 1.205,-1.7082 1.9204,-2.0486 0.5315,-0.2687 1.0599,-0.258 1.5903,0.0354 1.2657,0.7005 2.376,2.268 3.3208,4.6965 z m 10.2775,7.0262 0.9488,-0.6318 c -1.1086,-3.5771 -2.497,-5.9477 -4.1652,-7.1113 -0.8859,-0.618 -1.7484,-0.7501 -2.59,-0.4051 -0.8363,0.3484 -1.5948,1.0052 -2.2669,1.9687 -1.1169,1.6007 -1.8414,3.5444 -2.1648,5.8297 -0.3322,2.2864 -0.1996,4.3044 0.3801,6.0565 0.4652,1.3646 1.3005,2.4633 2.4973,3.2981 0.7458,0.5205 1.4131,0.7781 1.9953,0.7606 0.5874,-0.0136 1.0177,-0.222 1.2994,-0.6259 0.2206,-0.3158 0.294,-0.6421 0.2294,-0.98 -0.065,-0.3379 -0.2812,-0.6349 -0.6435,-0.8878 -0.3526,-0.246 -0.9204,-0.4033 -1.7039,-0.4725 -0.8136,-0.0593 -1.4145,-0.2245 -1.8031,-0.4955 -0.4921,-0.3436 -0.834,-0.913 -1.0117,-1.707 -0.1727,-0.7906 -0.033,-1.9948 0.4249,-3.6009 0.4581,-1.6055 1.146,-3.0665 2.0568,-4.3719 0.6687,-0.9583 1.3754,-1.5743 2.1223,-1.8388 0.5565,-0.2126 1.0809,-0.1471 1.5781,0.1999 1.1863,0.8277 2.1285,2.5018 2.8167,5.015 z m 9.1596,8.1397 0.9763,-0.22 c -0.4609,-4.1471 -1.5137,-6.9108 -3.1686,-8.2998 -0.6675,-0.5604 -1.3711,-0.7637 -2.1019,-0.61 -0.735,0.1584 -1.523,0.7336 -2.3598,1.7302 -1.6931,2.0175 -2.7601,4.5363 -3.2083,7.5657 -0.5258,3.4265 0.165,5.944 2.0855,7.556 0.6675,0.5604 1.3223,0.8218 1.9559,0.7844 0.6335,-0.0372 1.1982,-0.3467 1.6897,-0.9323 0.5156,-0.6143 0.8065,-1.393 0.8802,-2.3451 0.074,-0.9525 -0.1664,-2.2094 -0.7234,-3.7659 -0.2917,-0.7727 -0.9913,-2.3164 -2.1042,-4.6357 0.3444,-0.5772 0.707,-1.0973 1.0967,-1.5616 0.5605,-0.6679 1.0608,-1.048 1.4928,-1.1305 0.4365,-0.0873 0.8557,0.0419 1.262,0.383 0.3869,0.3248 0.7146,0.7894 0.9963,1.3972 0.3802,0.8138 0.7864,2.1772 1.2308,4.0844 z m -6.6645,-2.1305 c 0.9507,1.9525 1.4791,3.6411 1.59,5.0618 0.059,0.9811 -0.135,1.7425 -0.5857,2.2793 -0.337,0.4017 -0.7157,0.6364 -1.1316,0.6996 -0.4119,0.0584 -0.7891,-0.0521 -1.1276,-0.3362 -0.3487,-0.2925 -0.5774,-0.7075 -0.6831,-1.2498 -0.1528,-0.7219 -0.083,-1.5618 0.2063,-2.5151 0.4334,-1.4009 1.0091,-2.7156 1.7317,-3.9396 z m 6.6317,17.6193 c 0.7783,0.7764 1.5335,1.2265 2.2617,1.3464 0.7282,0.1197 1.2864,-0.0195 1.679,-0.413 0.2364,-0.2369 0.3563,-0.5366 0.3515,-0.8892 -0.01,-0.3529 -0.1301,-0.6565 -0.385,-0.9108 -0.1655,-0.1652 -0.3447,-0.2721 -0.5456,-0.3209 -0.1962,-0.0445 -0.5582,-0.0306 -1.0809,0.0372 -1.0001,0.144 -1.7059,0.011 -2.1263,-0.4085 -0.3577,-0.3569 -0.5368,-0.8124 -0.5419,-1.3615 -6e-4,-0.5448 0.2043,-1.0275 0.6103,-1.4346 0.3566,-0.3574 0.7894,-0.6216 1.2985,-0.7832 0.5091,-0.1613 1.4916,-0.2608 2.9429,-0.3025 1.9919,-0.0649 3.4475,-0.5581 4.3708,-1.4839 0.919,-0.9213 1.3331,-2.1229 1.2376,-3.6011 -0.095,-1.4786 -0.7628,-2.831 -2.0016,-4.0666 -1.042,-1.0392 -2.025,-1.601 -2.9497,-1.6846 -0.9289,-0.0794 -1.7013,0.1851 -2.317,0.8022 -0.3033,0.3038 -0.4592,0.648 -0.4677,1.0411 -0.01,0.3932 0.1258,0.7234 0.4076,1.0046 0.2415,0.2407 0.5318,0.37 0.8668,0.383 0.3348,0.013 0.6075,-0.0899 0.826,-0.309 0.089,-0.0896 0.1962,-0.2061 0.3212,-0.358 0.1069,-0.1162 0.2007,-0.2191 0.2767,-0.2951 0.2897,-0.2905 0.6514,-0.4116 1.0981,-0.3674 0.4377,0.0352 0.8623,0.2625 1.2736,0.673 0.4697,0.4683 0.8053,0.9635 1.0069,1.4859 0.197,0.5176 0.229,1.0403 0.1046,1.5679 -0.1245,0.5266 -0.3473,0.9561 -0.6684,1.2778 -0.3124,0.3132 -0.7186,0.5324 -1.2232,0.6625 -0.5046,0.1213 -1.4423,0.2205 -2.8267,0.2846 -1.9205,0.1009 -3.3491,0.6208 -4.2769,1.5508 -0.8521,0.8541 -1.2572,1.9488 -1.2022,3.2797 0.055,1.3309 0.6106,2.5271 1.6793,3.5932 z m 7.8324,8.1794 c 0.7415,0.8115 1.4751,1.2962 2.1968,1.4496 0.722,0.1531 1.2861,0.04 1.6963,-0.3351 0.2471,-0.2256 0.3809,-0.5193 0.3926,-0.8719 0.012,-0.3526 -0.1,-0.6616 -0.3427,-0.9275 -0.1577,-0.1726 -0.3314,-0.2877 -0.5301,-0.3458 -0.1939,-0.0536 -0.5559,-0.0564 -1.0812,-0.0131 -1.006,0.0975 -1.7047,-0.068 -2.1052,-0.5062 -0.3408,-0.3734 -0.4987,-0.8365 -0.4783,-1.3853 0.024,-0.5443 0.2515,-1.0171 0.6758,-1.4046 0.3731,-0.3407 0.8175,-0.5845 1.3337,-0.7225 0.5159,-0.1375 1.5018,-0.1914 2.9537,-0.1659 1.9928,0.0272 3.4693,-0.398 4.4345,-1.2798 0.961,-0.8776 1.4301,-2.0591 1.4032,-3.5402 -0.027,-1.4811 -0.631,-2.863 -1.8111,-4.1547 -0.9927,-1.0866 -1.9488,-1.6932 -2.8686,-1.8193 -0.9244,-0.1225 -1.7082,0.106 -2.3516,0.6939 -0.3172,0.2897 -0.4887,0.6262 -0.5157,1.0185 -0.027,0.392 0.092,0.7285 0.3609,1.0222 0.2299,0.2517 0.5142,0.3943 0.8481,0.4226 0.3339,0.0286 0.6109,-0.0615 0.8394,-0.2704 0.093,-0.0853 0.2055,-0.1965 0.3376,-0.3424 0.1122,-0.1114 0.2106,-0.2095 0.2897,-0.2821 0.303,-0.2769 0.6701,-0.381 1.114,-0.3163 0.4357,0.0555 0.8495,0.3021 1.2413,0.7313 0.4476,0.4896 0.7596,0.9998 0.9371,1.531 0.1726,0.5264 0.1803,1.05 0.032,1.571 -0.1488,0.5204 -0.3911,0.9388 -0.7268,1.2455 -0.3265,0.2982 -0.7424,0.4986 -1.2526,0.6052 -0.5094,0.0978 -1.4508,0.1534 -2.8369,0.1534 -1.9227,0.0119 -3.3741,0.4648 -4.3441,1.3509 -0.8906,0.8139 -1.3459,1.8888 -1.3524,3.2208 -0.01,1.332 0.4929,2.5526 1.5109,3.6672 z m 6.6061,9.4484 c 0.718,0.9774 1.6997,1.5024 2.9531,1.5766 1.249,0.078 2.5674,-0.3892 3.9518,-1.4062 2.2042,-1.6198 3.617,-3.8569 4.2324,-6.7 0.6154,-2.8426 0.2866,-5.1251 -0.9887,-6.8604 -0.7815,-1.0639 -1.7597,-1.6699 -2.9358,-1.8091 -1.1764,-0.1392 -2.3675,0.2344 -3.5689,1.1171 -2.0868,1.5336 -3.5784,3.5465 -4.4708,6.0441 -1.0956,3.1172 -0.8186,5.7982 0.8269,8.0379 z m 0.1947,-2.1027 c -0.6207,-0.8451 -0.6131,-2.1045 0.013,-3.7798 0.6267,-1.6755 2.0083,-3.2941 4.1309,-4.8537 1.2929,-0.9499 2.4902,-1.4536 3.594,-1.5197 0.8062,-0.0439 1.4327,0.2325 1.8701,0.828 0.6097,0.8297 0.648,1.9698 0.1196,3.4161 -0.699,1.8538 -2.0421,3.5146 -4.0323,4.977 -1.4913,1.0956 -2.7011,1.679 -3.6329,1.7445 -0.9314,0.0654 -1.6174,-0.2067 -2.0628,-0.8124 z m 17.6148,0.6652 -1.4567,-2.3442 -3.5442,3.7267 c -1.7427,1.8266 -3.4217,3.5169 -5.0422,5.0743 -0.4045,0.3776 -0.6588,0.6029 -0.777,0.6761 -0.2415,0.1502 -0.4295,0.1108 -0.5726,-0.1199 -0.1001,-0.1611 -0.1429,-0.4692 -0.1281,-0.9244 0.016,-0.4641 0.1862,-1.3876 0.5125,-2.7652 l -0.8473,-0.1429 c -0.457,1.6821 -0.6457,3.1975 -0.5607,4.5431 0.082,1.3397 0.2934,2.2788 0.627,2.8154 0.1165,0.1876 0.2526,0.3112 0.4051,0.3654 0.1559,0.0592 0.2968,0.0462 0.4252,-0.0338 0.1397,-0.0867 0.4558,-0.3798 0.9592,-0.8861 l 2.4007,-2.4434 c -1.0066,2.0902 -1.6829,4.1615 -2.0364,6.2254 -0.1664,0.9884 -0.1205,1.6963 0.1463,2.1254 0.1964,0.3164 0.4617,0.5159 0.7956,0.5984 0.3337,0.0828 0.6333,0.0377 0.9068,-0.1321 0.2844,-0.1766 0.4573,-0.4255 0.529,-0.7526 0.072,-0.3271 -0.01,-0.9833 -0.2421,-1.9689 -0.2205,-0.9411 -0.2939,-1.7657 -0.2327,-2.4806 0.067,-0.7183 0.3002,-1.5993 0.6931,-2.6544 0.3965,-1.0494 0.7976,-1.864 1.2123,-2.4412 0.4147,-0.5774 1.4962,-1.7328 3.2307,-3.4653 z m -13.1561,25.880399 c 0.163,0.3421 0.413,0.5726 0.7415,0.6891 0.3339,0.1136 0.6766,0.0833 1.0298,-0.0854 0.4848,-0.231 0.8306,-0.606 1.0409,-1.1194 0.2101,-0.5128 0.2132,-0.976199 0.012,-1.397999 -0.1576,-0.3305 -0.4048,-0.5556 -0.7446,-0.6664 -0.3399,-0.1109 -0.694,-0.0754 -1.0701,0.104 -0.4961,0.2367 -0.8419,0.5975 -1.0372,1.0825 -0.1928,0.490999 -0.1817,0.954499 0.028,1.393599 z m 7.9265,-11.904699 -0.9244,-0.4411 c -0.6982,1.6906 -1.0809,3.1187 -1.1645,4.2784 -0.084,1.1596 0.032,2.063 0.3365,2.7014 0.1687,0.3537 0.379,0.589 0.6228,0.7038 0.2435,0.1148 0.5009,0.1111 0.7687,-0.0167 0.3192,-0.1522 1.5219,-1.1667 3.5966,-3.0379 3.3937,-3.0532 5.4967,-4.7767 6.3063,-5.1627 0.1655,-0.0791 0.3155,-0.1018 0.462,-0.0735 0.1463,0.0281 0.2415,0.0808 0.2849,0.1721 0.1687,0.3532 -0.1035,1.6027 -0.8158,3.7477 l 0.9601,0.3404 c 0.722,-2.213 1.1185,-3.7737 1.1888,-4.6681 0.07,-0.8943 0,-1.5593 -0.214,-2.0041 -0.1879,-0.3934 -0.4601,-0.6414 -0.8141,-0.7526 -0.3538,-0.1111 -0.7503,-0.062 -1.1894,0.1474 -1.391,0.6636 -4.3949,3.1247 -9.006,7.3812 -0.2185,0.2021 -0.4274,0.3506 -0.627,0.4459 -0.2225,0.106 -0.3852,0.0578 -0.4805,-0.1418 -0.106,-0.2225 -0.1372,-0.5221 -0.096,-0.8917 0.046,-0.3719 0.312,-1.2824 0.8053,-2.7281 z m 13.4977,13.785999 0.9706,0.2432 c 1.4562,-3.910399 1.7603,-6.852399 0.9082,-8.837499 -0.3438,-0.8011 -0.8807,-1.2992 -1.6021,-1.4911 -0.7277,-0.1896 -1.6903,-0.0309 -2.8863,0.4825 -2.4202,1.0386 -4.5071,2.8074 -6.2711,5.3107 -2.0123,2.822699 -2.529,5.381599 -1.54,7.685899 0.3435,0.8007 0.8107,1.3291 1.3932,1.5808 0.5823,0.252 1.2257,0.2299 1.9284,-0.0717 0.7367,-0.316 1.3473,-0.8804 1.8417,-1.6977 0.4949,-0.8172 0.8464,-2.0474 1.0499,-3.6881 0.087,-0.8212 0.1579,-2.5146 0.2087,-5.086499 0.5672,-0.3606 1.125,-0.6616 1.6823,-0.9008 0.8008,-0.3439 1.4188,-0.4578 1.8417,-0.3371 0.4292,0.1185 0.7452,0.4227 0.9544,0.9099 0.1993,0.4646 0.2826,1.027 0.2605,1.6963 -0.027,0.898 -0.278,2.298299 -0.7401,4.201199 z m -4.9915,-4.903099 c -0.03,2.171399 -0.3186,3.917199 -0.8595,5.235299 -0.3892,0.9026 -0.9048,1.4953 -1.5491,1.772 -0.4819,0.2066 -0.9255,0.2457 -1.3255,0.1151 -0.394,-0.1336 -0.6812,-0.402 -0.8555,-0.8082 -0.1794,-0.4181 -0.197,-0.8918 -0.047,-1.4233 0.189,-0.7135 0.6295,-1.432 1.3169,-2.1529 1.018,-1.055599 2.1238,-1.970399 3.32,-2.737999 z m -2.1546,18.570099 c 0.3435,1.044 0.8138,1.7869 1.4094,2.2226 0.5958,0.4357 1.1565,0.5635 1.6846,0.3898 0.318,-0.1046 0.5604,-0.3175 0.7154,-0.6344 0.1551,-0.3169 0.1803,-0.6443 0.068,-0.9865 -0.073,-0.2219 -0.1845,-0.3982 -0.3419,-0.5326 -0.155,-0.1284 -0.4841,-0.2795 -0.9807,-0.4552 -0.9576,-0.3232 -1.5271,-0.7606 -1.7127,-1.3247 -0.1579,-0.4802 -0.1123,-0.9674 0.1315,-1.4595 0.2455,-0.4865 0.6463,-0.8246 1.1922,-1.0043 0.4799,-0.1579 0.9854,-0.1979 1.5126,-0.1123 0.527,0.0862 1.4482,0.4411 2.7621,1.0596 1.8065,0.8416 3.3279,1.059 4.5697,0.6503 1.2362,-0.4068 2.1484,-1.2918 2.7309,-2.6538 0.5825,-1.3624 0.5978,-2.8701 0.051,-4.5321 -0.46,-1.398 -1.0836,-2.3431 -1.8708,-2.8355 -0.7929,-0.4906 -1.6013,-0.6035 -2.4293,-0.331 -0.4079,0.1343 -0.7024,0.371 -0.8878,0.7177 -0.1851,0.3469 -0.2143,0.7024 -0.09,1.0803 0.1066,0.324 0.3073,0.5703 0.6001,0.7333 0.2931,0.163 0.5828,0.1942 0.8768,0.0975 0.1199,-0.0397 0.2678,-0.0952 0.4481,-0.174 0.148,-0.0556 0.2781,-0.1049 0.3801,-0.1387 0.3898,-0.1284 0.7671,-0.0728 1.1458,0.1681 0.3745,0.2294 0.6508,0.6239 0.8323,1.1758 0.2075,0.6302 0.2831,1.2235 0.227,1.7808 -0.058,0.5507 -0.2656,1.0315 -0.6148,1.4456 -0.349,0.4139 -0.7418,0.6962 -1.1736,0.8385 -0.4201,0.1381 -0.8815,0.1503 -1.3904,0.0386 -0.5051,-0.1196 -1.3864,-0.455 -2.6506,-1.023 -1.7589,-0.7776 -3.2684,-0.959 -4.5162,-0.5485 -1.146,0.3772 -2.0018,1.1709 -2.554,2.3833 -0.5519,1.2121 -0.5967,2.5302 -0.1247,3.9643"
         style="fill:#1a1516;fill-opacity:1;fill-rule:nonzero;stroke:none"
         id="path834"
         transform="matrix(0.14447702,0,0,-0.13773016,0.54184815,47.539246)" />
    </g>
    <g
       id="g428"
       transform="translate(5.9903926,-3.2373185)">
      <text
         transform="scale(1.0242002,0.9763716)"
         style="font-variant:normal;font-weight:bold;font-size:4.8025px;font-family:CenturyGothic;-inkscape-font-specification:CenturyGothic-Bold;writing-mode:lr-tb;fill:#1a1516;fill-opacity:1;fill-rule:nonzero;stroke:none;stroke-width:0.141063"
         id="text842"
         x="19.85079"
         y="20.953264"><tspan
           x="19.85079 22.63624 26.190079 29.167629 31.664925"
           y="20.953264"
           sodipodi:role="line"
           id="tspan836"
           style="stroke-width:0.141063">BAKES</tspan><tspan
           x="19.85079 22.63624"
           y="26.77549"
           sodipodi:role="line"
           id="tspan838"
           style="stroke-width:0.141063">BY</tspan><tspan
           x="19.85079 21.19549 23.692783 26.958488"
           y="32.597725"
           sodipodi:role="line"
           id="tspan840"
           style="stroke-width:0.141063">ISH</tspan></text>
    </g>
    <g
       id="g419"
       transform="translate(5.9903926,-3.2373185)">
      <path
         d="M 120.85074,277.64743 V 68.621731"
         style="fill:none;stroke:#1a1516;stroke-width:1.4998;stroke-linecap:butt;stroke-linejoin:miter;stroke-miterlimit:2.61313;stroke-dasharray:none;stroke-opacity:1"
         id="path844"
         transform="matrix(0.14447702,0,0,-0.13773016,0.54184815,47.539246)" />
    </g>
    <path
       d="m 14.071838,14.478055 0.90996,-0.06875 3.179838,1.103797 0.702693,0.383427 0.173777,0.499534 -0.05205,0.195948 0.944316,0.196073 0.647777,0.424498 0.111219,1.175885 0.845088,0.05026 0.406154,0.348512 0.243473,0.746566 -0.02225,0.117939 -0.327052,0.452526 0.133829,0.572751 -0.2714,0.991767 0.896118,0.657937 0.120003,0.819164 -2.229381,7.027957 c -3.138691,0.403067 -6.395275,0.379295 -9.755103,-0.01745 l -1.6416487,-4.250229 -0.1683591,0.03788 0.099675,2.10223 -0.425138,-0.102402 -0.5542717,0.03873 0.2621825,-2.342611 -0.4745782,-0.0079 -0.02956,-0.228742 -0.087972,-0.826078 -0.3495478,-1.212095 0.2353676,-0.861915 0.3574072,-0.282829 0.4454516,0.116079 0.7462238,-0.673308 0.7914451,-0.486545 -0.081673,-0.252239 -0.180813,-0.750781 0.5387547,-1.922796 0.910985,-0.420476 0.534089,-1.168709 0.589943,-0.212972 0.524292,0.07589 0.204276,-1.09523 0.470244,-0.641727 z"
       style="fill:#d05e63;fill-opacity:1;fill-rule:evenodd;stroke:#231f20;stroke-width:0.0304697;stroke-linecap:butt;stroke-linejoin:miter;stroke-miterlimit:2.61313;stroke-dasharray:none;stroke-opacity:1"
       id="path846" />
    <path
       d="m 16.932975,27.951315 c 0.08732,-0.839314 0.0455,-2.199633 -0.105339,-3.005382 -0.09988,0.675497 -0.02203,2.374247 0.105339,3.005382 z"
       style="fill:#000000;fill-opacity:1;fill-rule:evenodd;stroke:#000000;stroke-width:0.0304697;stroke-linecap:butt;stroke-linejoin:miter;stroke-miterlimit:2.61313;stroke-dasharray:none;stroke-opacity:1"
       id="path848" />
    <path
       d="m 12.332638,27.95659 c 0.182215,-0.951798 0.381608,-1.966869 0.314455,-3.012338 -0.163982,0.588094 -0.342021,2.349415 -0.314455,3.012338 z"
       style="fill:#000000;fill-opacity:1;fill-rule:evenodd;stroke:#000000;stroke-width:0.0304697;stroke-linecap:butt;stroke-linejoin:miter;stroke-miterlimit:2.61313;stroke-dasharray:none;stroke-opacity:1"
       id="path850" />
    <path
       d="m 18.808922,27.768602 c 0.214837,-0.691116 0.308877,-2.015405 0.306624,-2.810838 l -0.08708,0.30386 c -0.08554,0.59257 -0.283883,2.057854 -0.219547,2.506978 z"
       style="fill:#000000;fill-opacity:1;fill-rule:evenodd;stroke:#000000;stroke-width:0.0304697;stroke-linecap:butt;stroke-linejoin:miter;stroke-miterlimit:2.61313;stroke-dasharray:none;stroke-opacity:1"
       id="path852" />
    <path
       d="m 20.115688,27.573397 0.01916,0.05399 c 0.04989,0.0702 0.522747,-2.082783 0.473683,-2.852185 -0.253023,0.520083 -0.357538,2.38225 -0.49284,2.798195 z"
       style="fill:#000000;fill-opacity:1;fill-rule:evenodd;stroke:#000000;stroke-width:0.0304697;stroke-linecap:butt;stroke-linejoin:miter;stroke-miterlimit:2.61313;stroke-dasharray:none;stroke-opacity:1"
       id="path854" />
    <path
       d="m 17.535617,14.946943 c -0.0077,0.09538 -0.036,0.08371 0.05357,0.06669 -0.03056,-0.674836 -0.08339,-0.612954 -0.359791,-1.038278 l 0.337426,-0.04427 c 0.250552,0.334891 0.131951,0.548772 0.267586,0.792816 0.03301,-0.376471 -0.08117,-0.652965 -0.247923,-0.846228 l -0.443992,0.06384 c 0.112837,0.263092 0.363548,0.241 0.393122,1.00543 z m 0.11824,0.145788 0.03833,0.02202 c 0.04382,-0.171832 0.09911,-0.168582 0.100585,-0.401043 z m -0.07163,0.116299 c 0.07637,0.01226 0.05467,0.02573 0.05467,-0.05169 -0.08621,-0.01807 -0.06585,-0.03314 -0.05467,0.05169 l -0.0958,-0.172755 -0.0328,0.351846 z"
       style="fill:#ec008c;fill-opacity:1;fill-rule:evenodd;stroke:#ec008c;stroke-width:0.0304697;stroke-linecap:butt;stroke-linejoin:miter;stroke-miterlimit:2.61313;stroke-dasharray:none;stroke-opacity:1"
       id="path856" />
    <path
       d="m 14.444069,27.925394 c 0.157957,-0.417267 0.107144,-0.97776 0.117908,-1.450202 0.0058,-0.254319 0,-0.495236 -0.0065,-0.748963 z"
       style="fill:#000000;fill-opacity:1;fill-rule:evenodd;stroke:#000000;stroke-width:0.0304697;stroke-linecap:butt;stroke-linejoin:miter;stroke-miterlimit:2.61313;stroke-dasharray:none;stroke-opacity:1"
       id="path858" />
    <path
       d="m 17.582225,15.20903 c -0.01112,-0.08483 -0.03154,-0.06976 0.05467,-0.05169 0.07811,0.01749 0.0607,0.03288 0.05529,-0.04259 l -0.03833,-0.02202 c -0.08466,0 -0.05353,0.01671 -0.06467,-0.0791 -0.08958,0.01702 -0.06116,0.02869 -0.05357,-0.06669 -0.09395,0 -0.06132,-0.01705 -0.04919,0.08933 z"
       style="fill:#ec008c;fill-opacity:1;fill-rule:evenodd;stroke:#ec008c;stroke-width:0.0304697;stroke-linecap:butt;stroke-linejoin:miter;stroke-miterlimit:2.61313;stroke-dasharray:none;stroke-opacity:1"
       id="path860" />
    <path
       d="m 9.2148388,23.589552 0.165874,0.05141 -0.034328,-0.08674 c 0.1060317,0.01077 0.086903,0.03884 0.086903,-0.0506 l -0.086903,0.0506 c -0.2175824,-0.02924 -0.084808,-0.0246 -0.131546,0.03533 z"
       style="fill:#000000;fill-opacity:1;fill-rule:evenodd;stroke:#000000;stroke-width:0.0304697;stroke-linecap:butt;stroke-linejoin:miter;stroke-miterlimit:2.61313;stroke-dasharray:none;stroke-opacity:1"
       id="path862" />
    <path
       d="m 13.584069,9.7060354 c 2.085916,0.8169466 3.453261,1.8981696 3.32446,3.5295966 -0.204652,-1.720056 -1.61953,-2.423431 -3.460384,-3.151789 0.02786,-0.1351271 0.07364,-0.2607921 0.135924,-0.3778076 z"
       style="fill:#231f20;fill-opacity:1;fill-rule:evenodd;stroke:#231f20;stroke-width:0.0705316;stroke-linecap:butt;stroke-linejoin:miter;stroke-miterlimit:2.61313;stroke-dasharray:none;stroke-opacity:1"
       id="path864" />
    <path
       d="m 7.994947,22.270497 0.1935848,0.07437 0.2464633,0.133708 0.1361696,0.3239 0.1921256,0.260875 0.1666831,0.252473 0.2072234,0.237764 1.0027142,-0.145705 0.564428,0.08133 0.871225,-1.149152 0.394668,-0.01749 0.364704,0.64313 -0.03485,0.730397 -0.09208,0.567077 -0.06954,0.02124 -0.186462,0.336543 0.02379,0.93797 -0.123195,0.09999 -0.388687,-0.162383 -0.892276,-1.094143 0.803437,1.27366 0.244542,1.484635 0.04661,0.720315 -0.165657,0.08835 -0.382026,-0.05661 -0.396185,0.139535 0.09005,-2.244038 -0.381275,-1.110421 -0.08556,-0.234596 -0.9529269,-0.02492 -0.2863824,0.5346 -0.1645593,0.714461 0.03583,1.493891 0.0956,0.765407 -0.064509,0.108504 -0.3772729,-0.173857 -0.5156529,0.141022 -0.059264,-0.194475 0.1137323,-1.0166 0.2850098,-1.281538 -0.6378661,0.113022 -0.054063,-0.06661 0.041364,-0.962376 -0.3414281,-0.889489 -0.03125,-0.754748 0.3514693,-0.529131 z"
       style="fill:#ed1c24;fill-opacity:1;fill-rule:evenodd;stroke:#ed1c24;stroke-width:0.0705316;stroke-linecap:butt;stroke-linejoin:miter;stroke-miterlimit:2.61313;stroke-dasharray:none;stroke-opacity:1"
       id="path866" />
    <g
       id="g422"
       transform="translate(5.9903926,-3.2373185)">
      <path
         d="m 95.894545,103.55343 c -12.9674,-3.426 -37.679,-3.3837 -51.8873,-1.8343 l -12.5459,1.4955 c -1.743,0.3331 -1.9457,0.5587 -2.0143,2.6144 6.6986,-1.2699 25.916,-2.0792 33.319,-2.0798 10.7289,-5e-4 23.5624,0.6427 33.7289,2.183 z m -68.2101,6.3476 c 13.5125,-0.9159 18.442,-2.8834 35.0881,-2.7539 5.9077,0.046 11.8542,0.5006 17.716,0.9017 5.578,0.3821 12.2423,1.7056 17.3659,1.8542 l -0.8085,-2.8579 c -4.928,-1.0188 -11.1894,-1.1736 -16.5228,-1.6095 -12.2202,-0.9984 -23.0114,-0.6069 -35.1343,-0.2345 -5.4902,0.1684 -11.3536,1.188 -16.621,1.3902 z m -0.699,1.8062 c 0.582,0.43 -0.2806,0.1296 0.7827,0.3059 l 16.2246,-1.2626 c 10.0148,-0.8379 27.1403,-0.5641 37.2609,0.1568 2.7918,0.1987 16.0829,1.6792 17.2709,1.1619 -0.313,-1.1835 0.303,-1.0987 -3.1431,-1.5279 -19.1202,-2.3819 -31.5997,-3.219 -51.4094,-1.6755 -2.8998,0.2259 -5.8813,0.561 -8.7548,0.9261 -1.5718,0.1998 -2.9704,0.3806 -4.5292,0.5765 -4.3945,0.5528 -3.1861,0.2914 -3.7026,1.3388 z m -1.495,4.5037 c 33.7482,-4.0104 41.3878,-3.0291 74.3806,0.22 l -0.7844,-3.0583 c -32.2458,-2.1456 -38.6133,-3.4163 -72.4178,-0.4995 -0.5783,1.2566 -0.718,2.0291 -1.1784,3.3378 z m 1.2793,27.6908 1.1891,0.5803 c 1.0179,-1.0749 2.0211,-3.4166 3.2491,-5.0043 3.0047,-3.8838 4.6151,-16.016 4.0708,-20.8976 -1.8819,0.0581 -2.48,0.8444 -3.3125,0.864 -0.705,0.0164 -1.9242,-1.0094 -3.2032,-1.3666 1.1103,10.2518 1.8145,16.9427 -1.9933,25.8242 z m -9.4986,0 c -0.8436,-2.1095 -3.2012,-4.3566 -3.6964,-6.1537 l 1.5664,1.6931 c 0.4391,0.6503 0.8439,1.2864 1.2833,1.9743 0.7528,1.1801 1.3702,3.0895 2.5718,2.8704 0.037,-0.0641 0.4672,-0.0241 -0.036,-1.4023 -0.038,-0.1029 -0.5317,-1.0791 -0.6063,-1.2399 -0.4082,-0.8832 -0.6786,-1.6282 -0.9533,-2.6518 -1.9261,-7.1784 -0.3211,-14.2435 -0.1916,-20.9664 -1.5256,0.5145 -2.2394,1.5446 -3.1912,1.4581 -1.5038,-0.1363 -0.8612,-1.0587 -3.2551,-0.7911 -0.4306,6.6642 1.45,13.0617 2.812,19.0556 -1.6231,-0.5927 -0.8399,-2.1688 -3.6218003,-2.166 -1.8142,0.001 -1.0539,2.1498 -0.9845,3.9779 0.064,1.703 -0.02,3.2102 -0.4635,4.701 -0.7713,2.5894 -2.1693,4.8461 -2.1693,7.9608 0,4.333 2.6991,9.4462 5.4697003,6.9341 0.6435,-0.5834 1.8907,-2.9126 2.5991,-3.9365 1.0911,-1.5775 1.5199,-2.5432 2.7876,-3.6646 -0.6523,-0.5369 -0.9924,-0.1999 -1.5287,-0.5582 l 1.9454,-0.4453 c -1.3235,-1.6327 -0.5539,-0.4552 -1.7317,-0.8617 0.7237,-0.2993 0.5043,-0.0612 0.7889,-0.1188 0.8444,-0.1701 0.2599,0.144 0.8263,-0.2435 l 0.3214,-3.2862 c -0.9964,-0.7951 -0.8433,-0.1579 -2.0979,-0.6627 1.8587,0.0879 1.6574,3e-4 2.1487,-0.4394 -0.7308,-0.6236 -0.5723,-0.5201 -1.819,-0.7418 z m 7.6683,-26.6131 c -1.3802,4.4238 -3.0779,8.7758 -4.7404,12.9785 -3.4027,8.6028 -2.3658,5.8583 -0.1372,13.6672 l 5.9255,-0.0374 c 0.459,-1.6109 1.3675,-3.0903 1.8675,-4.8855 0.9258,-3.3256 -1.9281,-16.24 -1.0069,-19.7972 l 2.0602,14.0139 c 0.2795,-2.8777 0.2073,-5.5289 3e-4,-8.3724 -0.3739,-5.1372 -1.631,-8.2434 1.1866,-6.9369 2.2037,1.0216 0.8813,1.2379 3.4784,0.3795 1.8244,-0.6029 1.7473,0.004 1.8913,0.1517 1.6041,1.5191 -1.3819,14.9627 -1.6586,17.498 5.9114,-2.9583 4.0232,2.488 3.9867,3.9756 -0.051,2.0695 0.4683,3.0036 0.737,4.7678 5.6687,-0.085 11.5574,-0.9847 17.3628,-1.1551 20.95,-0.6145 32.3492,0.3904 53.127495,2.0682 -0.1415,-1.8808 -5.8391,-18.9187 -6.8877,-22.2503 -1.7283,-5.4924 -1.2055,-5.7393 -2.918495,-6.1418 l -18.726,-1.8964 c -16.8548,-0.9584 -38.9948,-1.3935 -55.5485,1.9726 z m -6.3718,33.0951 c 0.3235,0.4351 -0.5955,0.4688 0.9105,0.2565 l 0.6015,0.3674 c 2.8727,0.7455 5.7138,0.8189 7.8577,-0.5947 0.5848,-2.3366 0.046,-3.2678 -0.22,-5.4499 -4.9904,-0.5802 -3.9657,-1.1239 -9.3246,0.1766 -0.1576,3.1436 -0.5615,2.346 0.1749,5.2441 z m -3.8148,9.9385 c 0.8234,1.141 4.5116,3.672 6.3246,4.6282 5.9826,3.1549 3.0306,0.6409 7.685,0.2157 5.4488,-0.4983 2.8778,2.6013 8.6111,-0.341 3.4631,-1.7768 4.7957,-3.74 6.2139,-4.5828 l -3.6105,-3.6513 c -0.6234,0.9703 -0.5349,1.2657 -1.4491,1.7821 0.3861,-1.9391 1.4207,-2.3091 1.5063,-5.4184 0.1233,-4.5051 -2.3422,-7.4163 -2.6249,-10.855 -0.1726,-2.0996 0.4292,-4.3608 -0.1099,-6.3725 -2.2241,-0.3773 -2.4616,0.034 -3.5499,1.2376 -1.5188,1.6803 -4.2352,5.4686 -4.5887,7.289 -0.075,0.3875 0.3793,-0.3257 -0.2344,0.5238 -0.3898,0.5397 0.018,-0.1624 -0.5273,0.6293 l 2.3454,0.1239 c -2.6592,0.322 -2.0004,0.1346 -1.9661,4.2434 l 2.0761,0.0516 c -0.6976,0.2824 -0.3529,0.044 -1.0156,0.2455 -1.0372,0.3155 -0.4187,0.0578 -0.9009,0.3416 0.5947,0.5474 0.6503,0.6647 1.8856,0.8646 -1.0335,0.2576 -0.7523,0.0504 -1.3776,0.6599 1.2271,0.7645 2.8633,3.9574 3.8922,5.4827 2.9537,4.3779 3.6077,1.6467 5.1897,0.953 -1.2087,3.8682 -5.0443,1.0574 -5.0624,1.0591 -2.5897,1.3025 -3.8585,1.6041 -6.3641,-0.133 -1.4598,-1.0119 -2.0817,-2.4962 -3.4052,-4.248 l -0.3589,-0.4626 c -2.4185,1.9673 -4.4141,6.2598 -8.5844,5.7336 z m 14.8206,-16.0129 c -0.4339,-0.2531 0.3345,-0.1848 0.3416,-0.1882 0.6698,-0.3333 -0.08,0.3407 -0.3416,0.1882 z m 23.8624,8.5848 c 4.5995,8.6984 9.1474,7.7332 13.5878,1.0564 0.043,-0.0649 0.096,-0.1593 0.1401,-0.2216 l 0.6667,-0.7725 c 1.1511,0.999 7.5926,10.4531 12.3148,4.0076 l 2.3655,-3.4803 c 0.4317,-0.4777 0.1695,-0.2342 0.6537,-0.6089 0.7977,1.9652 4.4651,5.9734 7.5127,6.2379 3.031,0.2631 6.1424,-5.3252 6.7459,-6.9514 0.8189,0.6948 0.3435,0.2237 0.8798,1.0627 1.175,1.8366 0.5556,1.4669 2.578695,3.5626 1.2203,1.2637 3.0847,2.9537 5.8241,2.1121 1.7076,-0.5253 3.6229,-2.5362 4.4597,-3.5314 0.9505,-1.1305 0.9,-1.0826 -0.2143,-4.2917 l -0.8011,-1.5052 c -2.0675,-1.3793 -30.106995,-2.7391 -34.361495,-2.8777 -6.2102,-0.2021 -12.2619,-0.0119 -18.4567,0.1057 -5.7798,0.1095 -11.753,1.1002 -17.3548,1.4313 0.8237,4.4716 -0.6713,8.6099 4.3239,10.538 2.2683,0.8754 3.9181,-0.4357 5.205,-1.7203 z m -24.8933,-1.5429 c -1.8318,0.2636 -3.3613,0.7548 -5.2053,0.7534 -1.993,-0.002 -3.5816,-0.6545 -5.5222,-0.7429 -0.8376,1.5718 -3.7284,4.6366 -3.924,6.6772 2.7236,0.997 3.4294,0.6631 5.5962,-0.9878 1.6815,-1.2813 2.7142,-2.2811 3.7191,-4.1457 1.2398,1.0942 1.9978,2.9506 3.5475,4.2177 1.8842,1.5409 3.1436,1.7934 6.0744,1.2367 -0.3558,-2.0565 -3.369,-5.438 -4.2857,-7.0086 z m 65.8584,7.5795 c 6.644695,1.4896 6.400095,1.4559 10.688095,4.7478 1.9077,-1.6504 4.7477,-3.263 6.0789,-6.6782 -1.81,1.1149 -3.9907,4.6846 -7.7758,3.0844 -2.8227,-1.1931 -3.951695,-3.6402 -5.872495,-5.574 z m -43.6093,-1.2832 c 0.079,0.0504 0.1956,0.0992 0.2529,0.1253 l 0.5102,0.2347 c 1.6146,0.6675 2.7371,0.8549 4.4439,2.0738 1.5188,1.0843 3.1161,2.2105 4.2945,3.2984 3.2768,3.0263 3.1348,5.3232 8.6317,6.5648 13.978,3.1577 13.3696,-7.1258 19.6373,-9.9301 l -1.5928,-1.6206 c -2.368,-1.8433 -2.2989,-2.8153 -3.9404,-3.9242 -1.4352,2.4429 -3.3574,6.4527 -7.1297,5.9578 -2.8378,-0.3722 -6.5772,-4.3245 -7.4948,-5.8986 -1.2441,0.5757 -1.33,0.9641 -2.0072,2.048 -2.5469,4.0771 -6.5478,5.3082 -10.2589,1.9018 -1.1724,-1.0758 -1.6393,-2.4931 -2.7774,-3.8475 z m 20.2244,63.6023 c 0,0 0,0 0,0 m -26.6984,-19.8323 c 0,4.4759 0.3294,8.8161 2.6611,11.4466 0.9686,1.0925 2.8953,1.9531 4.7418,2.4976 1.0528,0.3104 3.7704,0.9207 4.8804,0.7492 l 0.6458,-0.2078 c 0.064,0.0998 0.2228,-0.0762 0.322,-0.1377 -3.0935,-1.0398 -7.1107,-4.4793 -8.2656,-7.4668 0.4054,0.296 0.2177,0.1378 0.6157,0.5477 0.2702,0.2786 0.2702,0.3067 0.5097,0.6001 1.5585,1.9066 5.4624,4.4728 7.7014,5.0953 -0.2962,-4.5998 1.0044,-6.3301 4.3319,-7.9838 2.8253,-1.404 6.4282,-2.4288 10.0917,-1.5455 4.2454,1.0236 4.5555,3.7316 8.8194,3.0427 3.1842,-0.5147 5.1301,-3.2077 4.7775,-6.8711 -3.4211,-0.0531 -15.6583,-0.9868 -18.3966,-4.1196 5.3521,0.5439 7.9521,3.0943 19.6155,2.6421 8.3322,-0.3231 10.402,-3.2751 10.1234,-11.6733 -2.0132,-0.3972 -4.716,-1.5446 -6.8511,-2.1946 -13.5513,-4.127 -25.4497,-4.5369 -39.3783,-1.3496 -4.845,1.1084 -9.3135,2.8585 -13.8203,3.9424 4.1394,-2.5174 15.7685,-5.3163 21.7749,-6.0919 8.761,-1.1319 17.4614,-0.2755 25.6402,1.3297 3.7868,0.743 7.6717,1.8199 11.1815,2.9262 9.704195,3.0583 15.239395,-4.9124 8.229595,-11.1319 -3.1983,-2.8375 -6.281895,-3.1955 -10.493595,-3.329 3.7364,-2.0004 9.084195,0.5083 11.186395,2.4837 0.3997,-0.4374 0.6145,-0.6743 0.7633,-2.2286 0.2211,-2.3096 -0.096,-4.9634 -1.1528,-6.9792 -1.2067,-2.3023 -3.1397,-3.8213 -6.273095,-4.5884 -2.8828,-0.7058 -6.8153,-1.0593 -9.2724,0.2974 -5.7529,3.1773 -2.6901,7.8443 -12.1399,9.9419 -3.5289,0.7832 -5.876,0.7438 -9.311,-0.1267 -4.297,-1.0894 -4.6247,0.7362 -8.7057,-2.156 -1.1614,-0.8235 -1.8227,-1.6447 -2.941,-2.4801 -1.203,-0.8988 -2.4245,-1.3124 -3.2842,-2.2039 5.184,1.0202 6.4888,5.6863 11.8976,5.4272 -1.2371,-2.6079 -7.2443,-7.7536 -10.5472,-9.2475 -4.3262,-1.9567 -3.7828,-1.1678 -7.3474,0.0343 -2.0962,0.707 -1.7776,0.5735 -3.2352,1.8533 -0.8297,0.7288 -1.6285,1.2538 -2.7173,2.0019 -10.4808,7.2002 -7.8806,-0.9326 -14.2418,3.1201 -4.6474,2.9605 -5.2608,8.5067 -1.5761,13.4124 l 15.4968,-3.4841 c 5.5275,-1.0293 10.936,-1.6846 16.5832,-2.2589 5.6838,-0.578 11.5288,-0.9406 17.1369,-1.6152 l 12.7811,-0.9899 c -20.4318,3.538 -42.0015,2.3899 -61.7301,9.756 -0.025,2.9288 -0.069,5.224 1.7011,6.7502 1.2229,1.0547 3.6544,1.942 5.8955,2.073 0.2341,4.8866 1.9395,10.1701 7.596,10.222 3.3534,0.0306 2.6515,-0.684 6.0315,-2.7508 1.7833,-1.0905 3.4878,-2.173 5.4669,-3.1935 4.0457,-2.0854 8.2202,-3.3199 13.6191,-3.7916 3.5062,-0.3061 13.3858,-0.0451 15.7326,1.319 -6.5166,0.2023 -12.0439,-2.0194 -21.6349,0.4093 -3.2102,0.8127 -14.2563,5.5151 -15.2359,8.2757 z m 36.8708,-8.685 c 2.0715,0.0632 3.4327,0.8727 4.9793,0.9073 l -4.1868,-0.614 c -0.078,-0.0207 -0.2086,-0.0703 -0.2707,-0.0884 z m 9.786,-21.3475 z m -38.6155,-7.4004 c 0.6729,-0.0298 0.1414,0.237 -0.3277,0.0218 -0.1508,-0.0694 0.3206,-0.0212 0.3277,-0.0218 z m -16.5249,24.9423 c 0.7487,-0.0385 0.6701,-0.2049 1.6285,-0.4254 z m 31.6557,7.9878 c 0.7205,-0.1023 -0.016,0.4365 -0.4343,0.0774 -0.4008,-0.3447 0.4255,-0.0763 0.4343,-0.0774 z m -18.3946,11.4165 c -0.4196,-0.8212 0.09,-0.1797 0.095,-0.1907 0.1539,-0.3019 0.1758,0.7222 -0.095,0.1907 z m -36.6562,-48.5078 c -1.6651,0.6599 -3.7066003,1.5468 -5.7839003,-2.8443 -2.9131,-6.1586 1.7507,-11.1518 1.8672,-16.3259 0.1026,-4.5592 -2.0678,-6.4908 3.7452003,-5.0417 -0.6497,-3.227 -2.5044003,-13.1757 -1.9199,-16.636 0.2004,-1.1868 0.074,-0.4923 0.2965,-0.8997 1.5406,-0.2789 2.4105,0.7917 3.6221,0.6931 1.4703,-0.1196 1.5295,-1.4474 3.4477,-1.0854 0.533,2.1113 -1.5638,10.6291 -0.3265,16.687 l 11.6595,-31.6658 c 1.421,-1.8386 31.1368,-3.299599 33.7192,-3.297299 6.2972,0.006 29.7658,1.163399 33.8009,3.170599 l 15.823495,48.8457 c 1.3261,3.8444 0.4006,5.5304 -1.3767,8.172 -2.9194,4.3385 -3.371,3.2386 -5.152,5.2866 0.8331,3.0104 1.6271,4.5343 0.6372,8.2866 -1.0706,4.0575 4.1431,6.4437 1.0653,10.8215 -1.8754,2.6683 -3.725,5.2007 -8.973695,4.3934 -0.032,3.8577 -0.2287,7.5864 -2.5188,9.4442 -1.8173,1.4743 -5.5919,2.9798 -8.8121,3.1867 -0.4241,5.8275 -2.3732,7.2848 -7.9826,8.2364 0.316,1.2628 1.5565,2.5302 1.9051,4.5255 0.8592,4.9189 -3.9401,11.0279 -9.2701,9.4476 -0.2883,4.8705 0.2526,7.1067 -1.6639,11.3575 -3.2695,7.2516 -16.0903,15.2714 -21.4388,16.6043 -0.5136,-0.7906 -0.8149,-1.4406 -0.9408,-2.7431 1.8374,-1.2527 9.529,-2.8287 16.3409,-8.3191 5.0386,-4.0612 8.3721,-10.9364 6.7156,-17.1987 -1.6266,1.8173 -5.5789,1.5534 -7.8894,0.2874 -3.4781,-1.906 -2.4018,-2.9999 -4.2486,-5.7758 -9.8646,0.5218 -17.4472,-4.6797 -15.8159,-15.2958 -7.164,0.9023 -10.0964,-2.3312 -11.198,-9.9422 -7.5645,-1.2002 -7.4389,-4.9266 -7.9495,-9.9663 -0.2219,-2.1904 -1.7733,-3.7296 -2.0846,-7.0475 -0.3225,-3.4387 1.1676,-4.7648 1.8168,-7.2825 -4.5343,-1.0619 -9.1837,-5.137 -11.1169,-8.079 z"
         style="fill:#1a1516;fill-opacity:1;fill-rule:evenodd;stroke:#1a1516;stroke-width:0.216;stroke-linecap:butt;stroke-linejoin:miter;stroke-miterlimit:2.61313;stroke-dasharray:none;stroke-opacity:1"
         id="path868"
         transform="matrix(0.14447702,0,0,-0.13773016,0.54184815,47.539246)" />
    </g>
    <path
       d="m 16.606196,13.21573 c 0.959891,0 1.738016,0.721872 1.738016,1.61238 0,0.890535 -0.778125,1.612421 -1.738016,1.612421 -0.959919,0 -1.738044,-0.721886 -1.738044,-1.612421 0,-0.890508 0.778125,-1.61238 1.738044,-1.61238 z"
       style="fill:#ed1c24;fill-opacity:1;fill-rule:evenodd;stroke:#000000;stroke-width:0.0704893;stroke-linecap:butt;stroke-linejoin:miter;stroke-miterlimit:2.61313;stroke-dasharray:none;stroke-opacity:1"
       id="path870" />
  </g>
</svg>
